<svg width="16" height="16" viewBox="0 0 16 16" xmlns="http://www.w3.org/2000/svg">
    <path d="M4.667 2A2.667 2.667 0 0 0 2 4.667v6.666A2.667 2.667 0 0 0 4.667 14h6.666A2.667 2.667 0 0 0 14 11.333V4.667A2.667 2.667 0 0 0 11.333 2H4.667zm0 1.333h6.666c.737 0 1.334.597 1.334 1.334v6.666c0 .737-.597 1.334-1.334 1.334H4.667a1.333 1.333 0 0 1-1.334-1.334V4.667c0-.737.597-1.334 1.334-1.334zm.666 1.334a.667.667 0 1 0 0 1.333.667.667 0 0 0 0-1.333zm2 0a.667.667 0 0 0 0 1.333h3.334a.667.667 0 0 0 0-1.333H7.333zm-2 2.666a.667.667 0 1 0 0 1.334.667.667 0 0 0 0-1.334zm2 0a.667.667 0 0 0 0 1.334h3.334a.667.667 0 0 0 0-1.334H7.333zm-2 2.667a.667.667 0 1 0 0 1.334.667.667 0 0 0 0-1.334zm2 0a.667.667 0 0 0 0 1.333h3.334a.667.667 0 0 0 0-1.333H7.333z" fill="#0062AE" fill-rule="evenodd"/>
</svg>
