<?xml version="1.0" encoding="UTF-8"?>
<svg width="24px" height="24px" viewBox="0 0 24 24" version="1.1" xmlns="http://www.w3.org/2000/svg" xmlns:xlink="http://www.w3.org/1999/xlink">
    <!-- Generator: Sketch 62 (91390) - https://sketch.com -->
    <title>icon/ upload</title>
    <desc>Created with Sketch.</desc>
    <g id="icon/-upload" stroke="none" stroke-width="1" fill="none" fill-rule="evenodd">
        <path d="M11.99998,2.5 C11.73798,2.5 11.47698,2.586 11.28098,2.781 L6.59399,7.49998 L7.99999,8.90598 L10.99998,5.93797 L10.99998,16.49995 C10.99998,17.05195 11.44798,17.49995 11.99998,17.49995 C12.55198,17.49995 12.99998,17.05195 12.99998,16.49995 L12.99998,5.93797 L15.99998,8.90598 L17.40598,7.49998 L12.71898,2.781 C12.52298,2.586 12.26198,2.5 11.99998,2.5 Z M4,14.49995 C3.448,14.49995 3,14.94795 3,15.49995 L3,17.49995 C3,19.70895 4.791,21.49995 7,21.49995 L16.99998,21.49995 C19.20898,21.49995 20.99998,19.70895 20.99998,17.49995 L20.99998,15.49995 C20.99998,14.94795 20.55198,14.49995 19.99998,14.49995 C19.44798,14.49995 18.99998,14.94795 18.99998,15.49995 L18.99998,17.49995 C18.99998,18.60495 18.10498,19.49995 16.99998,19.49995 L7,19.49995 C5.895,19.49995 5,18.60495 5,17.49995 L5,15.49995 C5,14.94795 4.552,14.49995 4,14.49995 Z" id="Shape" fill="#0062ae" fill-rule="nonzero"></path>
    </g>
</svg>